<svg xmlns="http://www.w3.org/2000/svg" viewBox="0 0 64 64" fill="none">
  <defs>
    <linearGradient id="globeFill" x1="18" y1="14" x2="46" y2="50" gradientUnits="userSpaceOnUse">
      <stop offset="0" stop-color="#93C5FD"/>
      <stop offset="1" stop-color="#1D4ED8"/>
    </linearGradient>
    <clipPath id="globeClip">
      <circle cx="32" cy="32" r="20"/>
    </clipPath>
  </defs>

  <circle cx="32" cy="32" r="20" fill="url(#globeFill)"/>
  <circle cx="32" cy="32" r="20" stroke="#1E3A8A" stroke-width="2"/>

  <g clip-path="url(#globeClip)">
    <g fill="#BFDBFE" opacity="0.95">
      <path d="M14 27c1-5 6-9 11-10 3-1 6 1 6 4v1c0 2-1 3-3 4l-2 1c-2 1-3 3-3 5v2c0 2-1 4-3 5l-2 1c-3 2-7 0-8-4l-1-5c0-1 0-3 0-4z"/>
      <path d="M33 18c2-2 5-3 8-2 5 2 9 6 11 11 1 3-1 6-4 6h-3c-2 0-4 1-5 3l-1 2c-1 2-3 3-5 2l-2-1c-2-1-3-3-2-5l1-3c1-2 0-4-1-6l-1-1c-1-2-1-4 1-6l3-2z"/>
      <path d="M33 36c2-2 5-3 8-2l4 2c2 1 3 3 2 5l-2 5c-1 3-4 5-7 5h-6c-3 0-4-3-3-6l1-2c1-2 1-4 0-6l-1-1c-1-2 0-4 2-5l2-1z"/>
      <path d="M44 46c2-2 5-2 7 0 1 2 1 4-1 5l-2 1c-2 1-4 0-5-2l-1-1c-1-1 0-2 2-3z"/>
    </g>
  </g>

  <g>
    <rect x="29" y="23" width="6" height="18" rx="2" fill="#EF4444"/>
    <rect x="23" y="29" width="18" height="6" rx="2" fill="#EF4444"/>
  </g>
</svg>
